<svg t="1575450105478" class="icon" viewBox="0 0 1220 1024" version="1.1" xmlns="http://www.w3.org/2000/svg" p-id="2883" width="48" height="48"><path d="M609.524 103.522c-222.89 0-403.712 178.472-403.712 398.78 0 220.31 180.823 398.782 403.712 398.782 222.889 0 403.712-178.473 403.712-398.781 0-220.309-180.823-398.781-403.712-398.781v48.762c196.1 0 354.95 156.785 354.95 350.019s-158.85 350.019-354.95 350.019-354.95-156.785-354.95-350.02c0-193.233 158.85-350.018 354.95-350.018v-48.762z" fill="#1296db" p-id="2884"></path><path d="M786.578 916.34c166.45-69.217 278.408-231.055 278.408-414.035 0-248.026-203.847-449.219-455.457-449.219-251.619 0-455.457 201.188-455.457 449.22 0 55.397 10.152 109.367 29.718 159.975 4.855 12.56-1.39 26.677-13.949 31.533-12.56 4.855-26.677-1.39-31.532-13.949a490.396 490.396 0 0 1-3.042-8.078c-1.85 0.077-3.711 0.116-5.581 0.116C58.06 671.903 0 614.597 0 543.903c0-65.005 49.09-118.69 112.68-126.91C153.65 182.56 360.56 4.324 609.528 4.324c248.962 0 455.877 178.24 496.85 412.67 63.583 8.225 112.669 61.907 112.669 126.909 0 70.694-58.06 128-129.686 128-1.89 0-3.771-0.04-5.642-0.119-47.536 129.702-148.34 235.841-279.493 290.027-1.161 33.464-29.012 60.24-63.2 60.24-34.925 0-63.237-27.944-63.237-62.416 0-34.471 28.312-62.415 63.237-62.415 17.892 0 34.048 7.333 45.551 19.12z" fill="#1296db" p-id="2885"></path><path d="M609.528 611.405c-58.933 0-112.056-10.644-158.472-28.342-16.123-6.147-30.211-12.702-42.138-19.208-6.926-3.777-11.447-6.59-13.437-7.972-19.24-13.373-44.428 5.446-37.059 27.688 35.296 106.527 136.054 179.913 251.106 179.913 115.05 0 215.796-73.384 251.092-179.913 7.37-22.243-17.82-41.062-37.06-27.687-1.99 1.383-6.51 4.195-13.434 7.972-11.926 6.505-26.012 13.06-42.133 19.207-46.413 17.698-99.533 28.342-158.465 28.342z" fill="#1296db" p-id="2886"></path></svg>
